# xmcd CD Database Entry
#
# Track frame offsets:
# 150
# 30959
# 53160
# 80178
# 100676
# 141906
# 163814
# 231299
# 247921
# 271902
# 297075
#
# Disc length: 4231 seconds
#
# Revision: 1
# Processed by: cddbd v1.4PL0 Copyright (c) Steve Scherf et al.
# Submitted via: tcd 2.0b
#
DISCID=9110850b
DTITLE=Miles Davis - love songs
DYEAR=1900
DGENRE=
TTITLE0=Fall In Love Too Easily
TTITLE1=I Thought About You
TTITLE2=Summer Night
TTITLE3=My Ship
TTITLE4=Someday My Prince Will Come
TTITLE5=Stella By Starlight
TTITLE6=My Funny Valentine
TTITLE7=I Loves You, Porgy (From Porgy and Bess)
TTITLE8=Old Folks
TTITLE9=Time Afer Time
TTITLE10=Human Nature
EXTD=
EXTT0=
EXTT1=
EXTT2=
EXTT3=
EXTT4=
EXTT5=
EXTT6=
EXTT7=
EXTT8=
EXTT9=
EXTT10=
PLAYORDER=
